<svg width="102" height="20" viewBox="0 0 102 20" fill="none" xmlns="http://www.w3.org/2000/svg">
<g clip-path="url(#clip0_1247_176)">
<path d="M16.2418 0.394165H20.2156V19.6059H16.2418V11.8709H3.97375V19.6059H0V0.394165H3.97375V8.28302H16.2418V0.394165Z" fill="white"/>
<path d="M42.5977 11.5453H28.0423C28.5506 14.5186 30.7419 16.0452 33.677 16.0452C35.8292 16.0452 37.825 15.0669 38.8416 13.3847L41.8931 14.9105C40.2891 17.962 37.0022 19.6059 33.5197 19.6059C28.2378 19.6059 24.0898 15.7324 24.0898 9.94137C24.0898 4.15032 28.316 0.394165 33.5197 0.394165C38.7234 0.394165 42.6751 4.15032 42.6751 9.90227C42.6751 10.4106 42.636 10.9588 42.5969 11.5453H42.5977ZM38.8416 8.45472C38.4506 5.59872 36.3766 3.95482 33.5597 3.95482C30.7428 3.95482 28.6297 5.40237 28.0823 8.45472H38.8424H38.8416Z" fill="white"/>
<path d="M86.2563 0.394165H90.2301V19.6059H86.2563V11.8709H73.9883V19.6059H70.0145V0.394165H73.9883V8.28302H86.2563V0.394165Z" fill="white"/>
<path d="M46.5502 0.394165V19.6059H50.524V13.4527H60.3483C63.954 13.4527 66.8771 10.5296 66.8771 6.92387C66.8771 3.31817 63.954 0.395015 60.3483 0.395015H46.5502V0.394165ZM50.524 9.82662V4.02027H60.0006C61.6037 4.02027 62.9034 5.31992 62.9034 6.92302C62.9034 8.52612 61.6037 9.82577 60.0006 9.82577H50.524V9.82662Z" fill="white"/>
<path d="M99.5698 5.25532C98.2277 5.25532 97.1397 4.16732 97.1397 2.82517C97.1397 1.48302 98.2268 0.394165 99.5698 0.394165C100.913 0.394165 102 1.48217 102 2.82432C102 4.16647 100.912 5.25447 99.5698 5.25447V5.25532ZM101.363 8.28302V19.6059H97.7755V11.8709H93.7252V8.28302H101.363Z" fill="white"/>
</g>
<defs>
<clipPath id="clip0_1247_176">
<rect width="102" height="19.2117" fill="white" transform="translate(0 0.394165)"/>
</clipPath>
</defs>
</svg>
