<svg width="21" height="22" viewBox="0 0 21 22" fill="none" xmlns="http://www.w3.org/2000/svg">
<path d="M9.47466 6.41514C9.47466 8.1378 8.07817 9.53431 6.3555 9.53431C4.63283 9.53431 3.23633 8.1378 3.23633 6.41514C3.23633 4.69246 4.63283 3.29596 6.3555 3.29596C8.07817 3.29596 9.47466 4.69246 9.47466 6.41514Z" fill="black"/>
<path d="M18.6407 15.5849C18.6407 17.3076 17.2442 18.7041 15.5216 18.7041C13.7988 18.7041 12.4023 17.3076 12.4023 15.5849C12.4023 13.8623 13.7988 12.4657 15.5216 12.4657C17.2442 12.4657 18.6407 13.8623 18.6407 15.5849Z" fill="black"/>
<path d="M18.6505 6.41538C18.6505 8.13805 17.254 9.53456 15.5313 9.53456C13.8086 9.53456 12.4121 8.13805 12.4121 6.41538C12.4121 4.69271 13.8086 3.2962 15.5313 3.2962C17.254 3.2962 18.6505 4.69271 18.6505 6.41538Z" fill="black"/>
<path d="M9.47661 15.5852C9.47661 17.3079 8.08012 18.7044 6.35745 18.7044C4.63478 18.7044 3.23828 17.3079 3.23828 15.5852C3.23828 13.8626 4.63478 12.466 6.35745 12.466C8.08012 12.466 9.47661 13.8626 9.47661 15.5852Z" fill="black"/>
</svg>
