<svg width="30" height="30" viewBox="0 0 30 30" fill="none" xmlns="http://www.w3.org/2000/svg">
<path d="M23.033 15.8331C22.9127 15.7336 22.7669 15.67 22.6122 15.6493C22.4575 15.6287 22.3001 15.6519 22.158 15.7164C21.2768 16.1196 20.3187 16.3272 19.3496 16.3247C17.557 16.3226 15.8379 15.6118 14.5672 14.3473C13.2965 13.0829 12.5773 11.3673 12.5663 9.57472C12.5701 9.01291 12.64 8.45351 12.7746 7.90805C12.8032 7.76267 12.7925 7.6123 12.7436 7.47243C12.6947 7.33257 12.6094 7.20826 12.4965 7.11233C12.3836 7.0164 12.2471 6.9523 12.1012 6.92665C11.9553 6.901 11.8052 6.91471 11.6663 6.96639C10.3599 7.55381 9.22427 8.46369 8.36609 9.61054C7.50791 10.7574 6.95536 12.1036 6.76033 13.5226C6.56531 14.9417 6.73421 16.387 7.25118 17.7229C7.76815 19.0587 8.61622 20.2412 9.71571 21.1593C10.8152 22.0773 12.13 22.7009 13.5367 22.9712C14.9433 23.2416 16.3956 23.15 17.7571 22.7049C19.1186 22.2599 20.3446 21.476 21.32 20.427C22.2953 19.378 22.988 18.0983 23.333 16.7081C23.375 16.5489 23.3689 16.3808 23.3155 16.2251C23.2621 16.0694 23.1638 15.933 23.033 15.8331ZM15.1163 21.4081C13.7178 21.3982 12.3565 20.9563 11.2188 20.1428C10.0811 19.3294 9.22268 18.1842 8.76103 16.864C8.29937 15.5438 8.25707 14.1132 8.63991 12.7681C9.02274 11.4229 9.812 10.229 10.8996 9.34972V9.57472C10.9018 11.8151 11.7928 13.9631 13.377 15.5473C14.9612 17.1315 17.1092 18.0225 19.3496 18.0247C19.9379 18.0269 20.5246 17.9654 21.0996 17.8414C20.5245 18.9293 19.6633 19.8396 18.6089 20.474C17.5545 21.1084 16.3469 21.4429 15.1163 21.4414V21.4081Z" fill="#EBEBEB"/>
</svg>
