<svg width="101" height="20" viewBox="0 0 101 20" fill="none" xmlns="http://www.w3.org/2000/svg">
<g clip-path="url(#clip0_1446_4921)">
<path d="M16.0628 0.5H19.9928V19.5H16.0628V11.8502H3.92996V19.5H0V0.5H3.92996V8.30192H16.0628V0.5Z" fill="black"/>
<path d="M42.1282 11.5283H27.7332C28.2359 14.4688 30.403 15.9786 33.3057 15.9786C35.4342 15.9786 37.408 15.011 38.4134 13.3474L41.4313 14.8563C39.845 17.8742 36.5943 19.5 33.1502 19.5C27.9265 19.5 23.8242 15.6692 23.8242 9.942C23.8242 4.21476 28.0038 0.5 33.1502 0.5C38.2966 0.5 42.2047 4.21476 42.2047 9.90333C42.2047 10.406 42.166 10.9482 42.1273 11.5283H42.1282ZM38.4134 8.47173C38.0267 5.6472 35.9756 4.02141 33.1897 4.02141C30.4039 4.02141 28.314 5.45301 27.7727 8.47173H38.4143H38.4134Z" fill="black"/>
<path d="M85.307 0.5H89.2369V19.5H85.307V11.8502H73.1741V19.5H69.2441V0.5H73.1741V8.30192H85.307V0.5Z" fill="black"/>
<path d="M46.0371 0.5V19.5H49.9671V13.4147H59.6831C63.2491 13.4147 66.14 10.5237 66.14 6.95775C66.14 3.39178 63.2491 0.500841 59.6831 0.500841H46.0371V0.5ZM49.9671 9.82851V4.08614H59.3393C60.9247 4.08614 62.2101 5.37147 62.2101 6.95691C62.2101 8.54234 60.9247 9.82767 59.3393 9.82767H49.9671V9.82851Z" fill="black"/>
<path d="M98.4716 5.30758C97.1442 5.30758 96.0682 4.23157 96.0682 2.90421C96.0682 1.57685 97.1434 0.5 98.4716 0.5C99.7998 0.5 100.875 1.57601 100.875 2.90337C100.875 4.23073 99.799 5.30674 98.4716 5.30674V5.30758ZM100.245 8.30192V19.5H96.697V11.8502H92.6914V8.30192H100.245Z" fill="black"/>
</g>
<defs>
<clipPath id="clip0_1446_4921">
<rect width="100.876" height="19" fill="white" transform="translate(0 0.5)"/>
</clipPath>
</defs>
</svg>
