<svg width="15" height="15" viewBox="0 0 15 15" fill="none" xmlns="http://www.w3.org/2000/svg">
<path d="M14.1418 14.1428H11.2135V9.54902C11.2135 8.45357 11.194 7.04342 9.6906 7.04342C8.16543 7.04342 7.93207 8.23689 7.93207 9.46924V14.1424H5.00391V4.69579H7.81495V5.98675H7.85437C8.42673 5.00642 9.49489 4.41872 10.6279 4.46086C13.5958 4.46086 14.143 6.4164 14.143 8.96052L14.1418 14.1428Z" fill="black"/>
<path d="M1.69965 3.40447C1.69948 3.40447 1.69939 3.40447 1.6993 3.40447C0.767089 3.40447 0 2.63612 0 1.70228C0 0.768434 0.767089 0 1.6993 0C2.63142 0 3.39842 0.768257 3.3986 1.70193C3.3986 1.70201 3.3986 1.7021 3.3986 1.70228C3.3986 2.63595 2.63169 3.40438 1.69965 3.40447Z" fill="black"/>
<path d="M3.16368 14.1428H0.232422V4.6958H3.16368V14.1428Z" fill="black"/>
</svg>
