<svg width="20" height="17" viewBox="0 0 20 17" fill="none" xmlns="http://www.w3.org/2000/svg">
<path d="M16.979 2.54352L17.4209 3.81439C17.4347 3.81263 17.4485 3.81083 17.4623 3.80901C17.3853 3.8693 17.307 3.92787 17.2274 3.98467L16.9207 4.20379L16.9405 4.58025C16.9486 4.73352 16.9487 4.88077 16.9487 5.05744C16.9487 9.95879 13.2089 15.5624 6.44375 15.5624C5.29756 15.5624 4.19339 15.3774 3.15961 15.0359C4.42957 14.7647 5.62878 14.2042 6.65965 13.3881L8.16463 12.1967L6.24545 12.1617C5.56914 12.1494 4.9137 11.9254 4.37126 11.5213C4.11864 11.3331 3.89645 11.1102 3.7104 10.8607C3.98216 10.837 4.2521 10.7888 4.5169 10.7164L4.4696 9.37898C3.32235 9.1507 2.39084 8.30785 2.03042 7.20669C2.32981 7.27415 2.64372 7.31243 2.9696 7.31243H5.29915L3.34288 6.0476C2.4749 5.48641 1.90627 4.49349 1.90627 3.36162C1.90627 3.12592 1.93156 2.89548 1.97957 2.67359C3.99726 4.71374 6.75991 6.02939 9.81903 6.18406L10.7239 6.22982L10.5244 5.34601C10.4708 5.10884 10.4404 4.85713 10.4404 4.59911C10.4404 2.80422 11.8947 1.35412 13.6671 1.35412C14.6327 1.35412 15.4655 1.73405 16.0574 2.37838L16.321 2.6653L16.7025 2.58662C16.8117 2.56412 16.9202 2.53969 17.0282 2.51332C17.0119 2.52353 16.9955 2.53359 16.979 2.54352Z" stroke="black" stroke-width="1.37499"/>
</svg>
