<svg width="19" height="19" viewBox="0 0 19 19" fill="none" xmlns="http://www.w3.org/2000/svg">
<path d="M15.7298 3.00129C14.8894 2.15239 13.8884 1.47932 12.7851 1.02134C11.6819 0.563359 10.4985 0.329633 9.30395 0.333795C4.29897 0.333795 0.219818 4.41295 0.219818 9.41793C0.219818 11.0221 0.641483 12.5804 1.42981 13.9554L0.146484 18.6671L4.95897 17.4021C6.28813 18.1262 7.78229 18.5112 9.30395 18.5112C14.3089 18.5112 18.3881 14.4321 18.3881 9.42709C18.3881 6.99794 17.4439 4.71545 15.7298 3.00129ZM9.30395 16.9712C7.94729 16.9712 6.61813 16.6046 5.45397 15.9171L5.17897 15.7521L2.31898 16.5037L3.07981 13.7171L2.89647 13.4329C2.14274 12.2293 1.74252 10.8381 1.74148 9.41793C1.74148 5.25628 5.13313 1.86462 9.29478 1.86462C11.3114 1.86462 13.2089 2.65295 14.6298 4.08295C15.3333 4.78325 15.8908 5.61622 16.27 6.53358C16.6493 7.45094 16.8426 8.43445 16.8389 9.42709C16.8573 13.5887 13.4656 16.9712 9.30395 16.9712ZM13.4473 11.3246C13.2181 11.2146 12.0998 10.6646 11.8981 10.5821C11.6873 10.5088 11.5406 10.4721 11.3848 10.6921C11.2289 10.9213 10.7981 11.4346 10.6698 11.5813C10.5414 11.7371 10.4039 11.7554 10.1748 11.6363C9.94561 11.5263 9.21229 11.2788 8.35062 10.5088C7.67229 9.90376 7.22312 9.16126 7.08563 8.9321C6.95729 8.70293 7.06729 8.58376 7.18646 8.4646C7.28729 8.36377 7.41563 8.19877 7.52562 8.07043C7.63562 7.9421 7.68146 7.84127 7.75479 7.6946C7.82812 7.53877 7.79146 7.41044 7.73646 7.30044C7.68146 7.19044 7.22312 6.07211 7.03979 5.61378C6.85646 5.17378 6.66396 5.22878 6.52646 5.21961H6.08646C5.93063 5.21961 5.6923 5.27461 5.48146 5.50378C5.2798 5.73294 4.69313 6.28294 4.69313 7.40127C4.69313 8.5196 5.50897 9.60126 5.61896 9.74793C5.72896 9.90376 7.22313 12.1954 9.49645 13.1762C10.0373 13.4146 10.4589 13.5521 10.7889 13.6529C11.3298 13.8271 11.8248 13.7996 12.2189 13.7446C12.6589 13.6804 13.5664 13.1946 13.7498 12.6629C13.9423 12.1313 13.9423 11.6821 13.8781 11.5813C13.8139 11.4804 13.6764 11.4346 13.4473 11.3246Z" fill="#2A2A2A"/>
</svg>
